# xmcd CD database file
#
# Track frame offsets:
#	150
#	24827
#	46157
#	68247
#	89625
#	129712
#	145142
#
# Disc length: 2598 seconds
#
# Revision: 0
# Processed by: cddbd v1.5.1PL0 Copyright (c) Steve Scherf et al.
# Submitted via: CDex 1.51
#
DISCID=5c0a2407
DTITLE=Junior Cook - Moment To Moment
DYEAR=1977
DGENRE=Jazz
TTITLE0=Sweet Lotus Lips
TTITLE1=The Crucifier
TTITLE2=The 8th Cat
TTITLE3=Not quiet That
TTITLE4=Yardbird Suite
TTITLE5=Moment To Moment(part1)
TTITLE6=Moment To Moment(Part2)
EXTD=YEAR: 1977
EXTT0=
EXTT1=
EXTT2=
EXTT3=
EXTT4=
EXTT5=
EXTT6=
PLAYORDER=
